HIERARCHY
ROOT Hips
{
    OFFSET 0.000000 0.000000 0.000000
    CHANNELS 6 Xposition Yposition Zposition Zrotation Xrotation Yrotation
    JOINT Spine
    {
        OFFSET -0.000000 8.267054 0.000000
        CHANNELS 3 Zrotation Xrotation Yrotation
        JOINT Spine1
        {
            OFFSET -0.000000 23.684998 0.000000
            CHANNELS 3 Zrotation Xrotation Yrotation
            JOINT Neck
            {
                OFFSET -0.000000 23.587730 2.144339
                CHANNELS 3 Zrotation Xrotation Yrotation
                JOINT Head
                {
                    OFFSET -0.000000 14.114483 -2.016355
                    CHANNELS 3 Zrotation Xrotation Yrotation
                    End Site
                    {
                        OFFSET -0.000000 25.204432 0.000000
                    }
                }
            }
            JOINT LeftShoulder
            {
                OFFSET 4.070090 22.062094 -0.247321
                CHANNELS 3 Zrotation Xrotation Yrotation
                JOINT LeftArm
                {
                    OFFSET 10.395479 0.000000 0.000000
                    CHANNELS 3 Zrotation Xrotation Yrotation
                    JOINT LeftForeArm
                    {
                        OFFSET 37.713577 0.000000 0.000000
                        CHANNELS 3 Zrotation Xrotation Yrotation
                        JOINT LeftHand
                        {
                            OFFSET 20.284107 0.000000 0.000000
                            CHANNELS 3 Zrotation Xrotation Yrotation
                            End Site
                            {
                                OFFSET 15.122660 0.000000 0.000000
                            }
                        }
                    }
                }
            }
            JOINT RightShoulder
            {
                OFFSET -3.979272 22.062094 -0.247321
                CHANNELS 3 Zrotation Xrotation Yrotation
                JOINT RightArm
                {
                    OFFSET -10.395479 0.000000 0.000000
                    CHANNELS 3 Zrotation Xrotation Yrotation
                    JOINT RightForeArm
                    {
                        OFFSET -37.713577 0.000000 0.000000
                        CHANNELS 3 Zrotation Xrotation Yrotation
                        JOINT RightHand
                        {
                            OFFSET -20.284107 0.000000 0.000000
                            CHANNELS 3 Zrotation Xrotation Yrotation
                            End Site
                            {
                                OFFSET -15.122660 0.000000 0.000000
                            }
                        }
                    }
                }
            }
        }
    }
    JOINT LeftUpLeg
    {
        OFFSET 10.081773 0.000000 0.000000
        CHANNELS 3 Zrotation Xrotation Yrotation
        JOINT LeftLeg
        {
            OFFSET -0.000000 -36.382099 0.000000
            CHANNELS 3 Zrotation Xrotation Yrotation
            JOINT LeftFoot
            {
                OFFSET -0.000000 -49.182560 0.000000
                CHANNELS 3 Zrotation Xrotation Yrotation
                JOINT LeftToeBase
                {
                    OFFSET -0.000000 -6.553152 15.122660
                    CHANNELS 3 Zrotation Xrotation Yrotation
                    End Site
                    {
                        OFFSET -0.000000 0.000000 4.032709
                    }
                }
            }
        }
    }
    JOINT RightUpLeg
    {
        OFFSET -10.081773 0.000000 0.000000
        CHANNELS 3 Zrotation Xrotation Yrotation
        JOINT RightLeg
        {
            OFFSET -0.000000 -36.382099 0.000000
            CHANNELS 3 Zrotation Xrotation Yrotation
            JOINT RightFoot
            {
                OFFSET -0.000000 -49.182560 0.000000
                CHANNELS 3 Zrotation Xrotation Yrotation
                JOINT RightToeBase
                {
                    OFFSET -0.000000 -6.553152 15.122660
                    CHANNELS 3 Zrotation Xrotation Yrotation
                    End Site
                    {
                        OFFSET -0.000000 0.000000 4.032709
                    }
                }
            }
        }
    }
}
MOTION
Frames:    8
Frame Time:    0.008333
3.234676    92.621841    13.917962    -0.613374    0.635026    -174.935318    -1.437048    -7.368913    0.002330    0.131750    0.184188    0.094421    4.668751    26.874405    -3.538407    2.462218    3.438510    -2.921203    20.161987    -3.526532    -9.052347    -21.960409    4.491968    -3.268097    1.085622    -0.469202    2.425447    -6.634612    -0.597708    1.819829    -15.049192    -1.265451    -1.206022    24.082968    3.682120    5.163632    -0.824974    -1.678421    -2.345990    -0.522708    -1.694273    -0.233707    -1.640831    -4.132172    -1.059222    0.964010    14.232473    8.704276    -0.610448    -9.566856    -2.647710    0.000000    0.000000    0.000000    -3.442770    -1.820506    -2.630177    1.061074    13.123044    -0.709319    2.072079    -9.001038    -10.262465    0.000000    0.000000    0.000000    
3.264697    92.625969    13.924026    -0.579248    0.630908    -174.948486    -1.442257    -7.336758    -0.001818    0.175585    0.156861    0.090531    4.702304    26.789585    -3.533195    2.385230    3.569353    -2.927756    20.154510    -3.524952    -9.039289    -21.963823    4.485871    -3.266668    1.083460    -0.463440    2.426090    -6.618688    -0.591900    1.822145    -15.045036    -1.264475    -1.198175    24.081491    3.677431    5.167866    -0.840990    -1.680556    -2.340878    -0.526116    -1.696704    -0.220003    -1.539402    -4.142910    -1.145012    0.864256    14.228678    8.839341    -0.664095    -9.556532    -2.674861    0.000000    0.000000    0.000000    -3.420575    -1.986333    -2.703812    1.052360    13.373593    -0.510870    2.157749    -9.018067    -10.310369    0.000000    0.000000    0.000000    
3.294665    92.630058    13.930133    -0.545584    0.626673    -174.961792    -1.447632    -7.305098    -0.005620    0.219029    0.130024    0.086563    4.734643    26.707207    -3.528331    2.310515    3.696414    -2.934215    20.147146    -3.523619    -9.026320    -21.967194    4.480142    -3.265022    1.081151    -0.458126    2.426625    -6.602648    -0.586300    1.824383    -15.041056    -1.263515    -1.190406    24.080414    3.672716    5.172150    -0.856408    -1.682588    -2.335666    -0.529550    -1.699106    -0.206821    -1.439394    -4.153678    -1.229418    0.766280    14.224568    8.972050    -0.716412    -9.546049    -2.701025    0.000000    0.000000    0.000000    -3.398923    -2.151570    -2.776715    1.043097    13.622912    -0.313696    2.243954    -9.034102    -10.357461    0.000000    0.000000    0.000000    
3.325974    92.634277    13.936607    -0.511319    0.622132    -174.976013    -1.453676    -7.272715    -0.009633    0.263776    0.102816    0.082939    4.765970    26.625599    -3.523971    2.236931    3.822205    -2.940994    20.139549    -3.522255    -9.012758    -21.970436    4.474469    -3.263244    1.078838    -0.452646    2.427059    -6.586245    -0.580685    1.826492    -15.037048    -1.262688    -1.182383    24.079960    3.667878    5.176566    -0.871714    -1.684713    -2.329883    -0.533120    -1.701547    -0.193975    -1.337624    -4.164906    -1.314854    0.667468    14.220007    9.106233    -0.768958    -9.534991    -2.726690    0.000000    0.000000    0.000000    -3.377397    -2.323644    -2.852527    1.032717    13.882114    -0.108891    2.334612    -9.050332    -10.405375    0.000000    0.000000    0.000000    
3.358806    92.638603    13.943532    -0.476701    0.617116    -174.991409    -1.460660    -7.239934    -0.013283    0.309860    0.075556    0.079236    4.795188    26.546288    -3.520408    2.166175    3.944256    -2.948250    20.131590    -3.521118    -8.998594    -21.973461    4.469269    -3.261077    1.076666    -0.447414    2.427258    -6.569589    -0.575333    1.828370    -15.033352    -1.261870    -1.174156    24.080660    3.662828    5.181274    -0.886512    -1.686962    -2.323431    -0.537077    -1.704054    -0.181851    -1.234757    -4.176713    -1.401072    0.568633    14.214895    9.240870    -0.820688    -9.523370    -2.750892    0.000000    0.000000    0.000000    -3.356586    -2.503194    -2.930931    1.021427    14.152025    0.103963    2.430131    -9.067496    -10.454219    0.000000    0.000000    0.000000    
3.393024    92.642975    13.950886    -0.442249    0.611744    -175.007980    -1.468562    -7.207099    -0.016514    0.356485    0.048784    0.075602    4.821738    26.471064    -3.518024    2.099788    4.059616    -2.956080    20.123648    -3.520166    -8.983915    -21.976227    4.464442    -3.258556    1.074580    -0.442648    2.427240    -6.552681    -0.570325    1.829924    -15.029828    -1.261102    -1.165841    24.082676    3.657734    5.186248    -0.900532    -1.689258    -2.316129    -0.541035    -1.706657    -0.170885    -1.132652    -4.188881    -1.485411    0.472489    14.209221    9.372624    -0.870696    -9.511374    -2.773249    0.000000    0.000000    0.000000    -3.336934    -2.688911    -3.011705    1.009005    14.430737    0.323410    2.530078    -9.085760    -10.503221    0.000000    0.000000    0.000000    
3.429489    92.647469    13.958868    -0.407571    0.605854    -175.026184    -1.477862    -7.173624    -0.019957    0.404652    0.022145    0.072612    4.845706    26.399256    -3.516989    2.036985    4.169139    -2.964845    20.115301    -3.519611    -8.968473    -21.978611    4.460139    -3.255378    1.072479    -0.438260    2.426953    -6.535142    -0.565571    1.831174    -15.026511    -1.260445    -1.157195    24.086374    3.652345    5.191500    -0.913607    -1.691609    -2.307779    -0.545440    -1.709258    -0.160913    -1.029900    -4.201598    -1.569438    0.377829    14.202850    9.503267    -0.919257    -9.498875    -2.793341    0.000000    0.000000    0.000000    -3.318556    -2.884972    -3.096551    0.995173    14.724508    0.554195    2.636602    -9.106116    -10.553387    0.000000    0.000000    0.000000    
3.468443    92.652039    13.967536    -0.372768    0.599406    -175.046158    -1.488605    -7.139647    -0.022932    0.454153    -0.004095    0.069669    4.866967    26.331299    -3.517510    1.978193    4.272074    -2.974674    20.106737    -3.519494    -8.952284    -21.980509    4.456439    -3.251457    1.070428    -0.434259    2.426387    -6.517240    -0.561225    1.832091    -15.023437    -1.259899    -1.148241    24.092028    3.646943    5.197005    -0.925568    -1.694163    -2.298147    -0.550300    -1.711965    -0.152134    -0.926932    -4.214837    -1.652435    0.285557    14.195647    9.631630    -0.965734    -9.486019    -2.810634    0.000000    0.000000    0.000000    -3.301590    -3.091866    -3.185910    0.979357    15.034206    0.797007    2.750575    -9.129093    -10.604437    0.000000    0.000000    0.000000    
